<?xml version="1.0" standalone="no"?>
<!DOCTYPE svg PUBLIC "-//W3C//DTD SVG 20010904//EN"
 "http://www.w3.org/TR/2001/REC-SVG-20010904/DTD/svg10.dtd">
<svg version="1.0" xmlns="http://www.w3.org/2000/svg"
 width="920.000000pt" height="375.000000pt" viewBox="0 0 920.000000 375.000000"
 preserveAspectRatio="xMidYMid meet">
<metadata>
Created by potrace 1.16, written by Peter Selinger 2001-2019
</metadata>
<g transform="translate(0.000000,375.000000) scale(0.100000,-0.100000)"
fill="#000000" stroke="none">
<path d="M1614 3322 c-29 -19 -34 -56 -34 -239 0 -159 -3 -198 -20 -251 -15
-47 -20 -92 -20 -172 0 -60 -4 -111 -8 -114 -14 -8 -92 32 -397 206 -160 91
-309 175 -333 187 -48 25 -86 20 -107 -13 -18 -28 -75 -383 -75 -465 0 -107
31 -333 51 -372 17 -35 65 -83 91 -91 9 -3 10 -35 0 -152 l-11 -148 -60 -57
c-65 -61 -81 -98 -81 -188 0 -114 32 -147 207 -214 73 -29 133 -56 133 -61 0
-4 -11 -36 -25 -70 -30 -73 -31 -99 -7 -121 19 -17 279 -117 305 -117 25 0 43
25 72 100 15 38 29 70 31 70 3 0 46 -17 97 -37 74 -30 110 -38 181 -42 l90 -6
16 -65 c51 -202 210 -365 415 -426 81 -24 229 -24 310 0 149 44 285 149 355
273 l35 62 1810 1 1810 0 28 -54 c39 -74 114 -155 190 -205 177 -115 397 -128
587 -35 148 73 273 231 310 392 l12 52 239 0 c317 0 326 4 331 144 l3 70 167
42 c92 23 178 48 191 57 13 8 37 17 53 19 l29 3 3 103 c2 93 1 103 -16 110
-11 4 -31 21 -46 39 -15 17 -42 37 -61 43 -30 10 -41 24 -95 131 -67 131 -103
179 -153 202 -17 8 -144 31 -282 51 -137 20 -263 39 -278 42 l-28 6 7 84 7 84
-35 33 -36 33 11 92 c10 86 9 94 -9 119 -23 31 -56 42 -137 45 -53 3 -61 0
-82 -24 -15 -17 -25 -46 -29 -80 -4 -29 -10 -71 -14 -93 l-7 -40 -5 55 c-4 46
-9 57 -32 69 -25 14 -29 14 -55 -5 -20 -15 -29 -31 -31 -57 -2 -21 -8 -37 -14
-37 -6 0 -8 13 -4 36 9 47 -14 84 -52 84 -39 0 -50 -11 -66 -61 l-14 -44 -1
46 c-2 101 -105 110 -118 11 -3 -23 -10 -42 -15 -42 -4 0 -6 10 -4 23 22 105
13 151 -31 168 -57 21 -102 -24 -104 -105 0 -17 -4 -40 -9 -51 -6 -12 -7 10
-3 60 5 73 3 82 -16 99 -29 26 -79 25 -102 -2 -10 -13 -20 -49 -24 -87 -9 -82
-23 -86 -17 -4 3 39 0 69 -9 86 -15 27 -57 53 -88 53 -12 0 -25 11 -33 27 -26
54 -92 82 -191 83 -60 0 -111 -23 -141 -64 -13 -17 -51 -100 -86 -184 -34 -84
-66 -154 -69 -157 -4 -2 -304 102 -666 231 -362 129 -685 238 -719 244 -35 6
-302 10 -628 10 l-568 0 0 33 c0 50 -14 57 -112 57 -60 0 -88 4 -88 12 0 8 31
9 113 5 133 -7 157 2 157 58 0 62 -11 65 -211 65 -167 0 -180 -1 -196 -20 -10
-11 -26 -20 -36 -20 -31 0 -77 -30 -87 -56 -17 -43 -11 -72 20 -107 17 -19 30
-37 30 -41 0 -3 -15 -9 -32 -14 -31 -8 -36 -5 -76 40 -84 93 -229 138 -350
108 -28 -6 -80 -29 -116 -51 -36 -21 -71 -39 -79 -39 -8 0 -39 -8 -68 -17 -40
-13 -54 -14 -57 -5 -10 32 -123 62 -249 66 -50 1 -52 2 -62 37 -6 21 -11 118
-11 223 0 182 -5 219 -34 238 -6 4 -58 8 -116 8 -58 0 -110 -4 -116 -8z m200
-38 c14 -5 16 -31 16 -180 l0 -174 -101 0 c-98 0 -100 0 -97 23 2 18 10 23 46
25 56 4 55 25 -3 82 l-45 44 0 87 c0 61 4 89 13 92 18 8 152 8 171 1z m1596
-369 c0 -13 -22 -15 -135 -15 l-135 0 0 -55 0 -55 106 0 c95 0 105 -2 102 -17
-3 -16 -20 -18 -161 -21 -152 -2 -157 -2 -157 18 0 17 6 20 45 20 l45 0 0 54
c0 46 -3 54 -21 59 -12 3 -18 10 -14 16 4 7 63 11 166 11 135 0 159 -2 159
-15z m-1562 -74 c7 -21 12 -43 12 -50 0 -8 -40 -11 -130 -11 -90 0 -130 3
-130 11 0 7 5 29 12 50 l11 39 107 0 107 0 11 -39z m865 -27 c43 -15 154 -101
143 -111 -2 -3 -26 -10 -53 -17 -42 -11 -51 -11 -73 4 -102 69 -235 42 -301
-60 -26 -40 -39 -50 -75 -59 -56 -14 -54 -15 -54 12 1 57 80 170 144 205 82
45 184 55 269 26z m-739 -30 c13 -5 16 -26 16 -123 0 -133 -6 -151 -44 -133
-26 11 -26 13 -26 121 0 86 3 113 16 125 18 18 17 18 38 10z m311 -104 c-14
-27 -25 -55 -25 -62 0 -25 -112 -101 -173 -116 -32 -8 -60 -12 -63 -9 -11 10
34 72 91 126 45 43 160 111 188 111 4 0 -4 -22 -18 -50z m-1300 17 c3 -12 5
-58 3 -102 l-3 -80 -102 -3 -103 -3 0 99 c0 54 3 102 7 105 3 4 48 7 99 7 89
0 94 -1 99 -23z m2165 -227 l0 -230 -60 0 -60 0 0 230 0 230 60 0 60 0 0 -230z
m1422 193 c12 -46 49 -69 258 -161 102 -44 325 -142 495 -217 171 -76 352
-155 403 -178 52 -22 96 -45 98 -51 2 -6 -24 -110 -58 -231 l-63 -220 -1076
-3 -1076 -2 -118 156 c-64 86 -126 175 -136 198 -17 38 -19 71 -19 394 l0 352
642 -2 642 -3 8 -32z m-1592 -201 c0 -152 -4 -222 -12 -230 -8 -8 -8 -15 1
-26 30 -36 -39 -143 -114 -177 -30 -14 -65 -19 -137 -19 -54 0 -98 4 -98 8 0
5 18 14 41 21 47 14 121 78 138 119 15 37 71 288 71 319 0 58 -56 113 -114
113 -13 0 -286 -63 -606 -141 -320 -77 -584 -138 -586 -136 -2 2 170 48 383
102 214 55 530 136 703 181 173 45 318 82 323 83 4 1 7 -97 7 -217z m2252 7
c326 -116 621 -221 656 -232 56 -19 63 -25 72 -55 14 -54 -8 -82 -66 -82 -23
0 -1146 487 -1228 533 -38 21 -59 47 -37 47 6 0 277 -95 603 -211z m1156 130
c33 -21 27 -29 -21 -29 -61 0 -98 -39 -105 -110 -4 -47 -7 -52 -44 -71 -43
-22 -54 -41 -63 -111 l-6 -47 -47 6 c-87 11 -86 1 -12 177 83 200 93 210 199
204 42 -3 86 -11 99 -19z m132 -99 c16 -9 20 -21 20 -66 0 -36 -4 -56 -13 -60
-8 -3 -60 1 -118 8 l-104 13 3 40 c2 22 10 51 19 64 15 23 19 24 94 18 44 -4
88 -11 99 -17z m-60 -179 c85 -11 364 -45 620 -76 256 -31 476 -61 488 -66 23
-9 24 -12 17 -82 -4 -39 -8 -73 -10 -75 -1 -1 -9 0 -17 3 -9 4 -13 15 -10 34
7 48 -31 80 -108 91 -139 20 -190 5 -190 -55 0 -21 -4 -24 -27 -19 -29 5 -262
39 -508 75 -176 25 -187 27 -180 39 7 12 -13 51 -34 67 -9 6 -45 14 -81 18
-36 3 -80 9 -98 12 -28 5 -37 0 -66 -30 -42 -45 -56 -37 -46 27 8 55 22 68 65
61 17 -3 100 -14 185 -24z m-4915 -16 c-5 -3 -73 -21 -149 -41 -77 -20 -150
-43 -162 -51 -12 -8 -30 -30 -39 -49 -13 -28 -14 -41 -5 -69 23 -68 -14 -65
730 -65 414 0 670 -4 670 -9 0 -6 -179 -11 -457 -13 -510 -4 -485 -1 -636 -80
-90 -47 -218 -177 -258 -262 l-31 -66 -129 0 c-71 0 -129 3 -129 8 0 20 60
565 62 567 9 6 507 133 523 133 11 0 16 -1 10 -3z m1110 -15 c4 -7 -128 -10
-389 -10 -257 0 -396 4 -396 10 0 6 136 10 389 10 249 0 392 -4 396 -10z m0
-90 c-4 -6 -147 -10 -396 -10 -253 0 -389 4 -389 10 0 6 139 10 396 10 261 0
393 -3 389 -10z m570 -98 c0 -139 9 -160 146 -344 60 -80 109 -149 109 -152 0
-3 -125 -6 -278 -6 l-277 0 -93 93 -94 94 72 6 c144 12 282 108 346 241 18 38
36 89 40 115 4 25 8 49 11 54 13 22 18 -4 18 -101z m3328 19 c293 -44 748
-112 1012 -151 264 -39 490 -73 503 -76 22 -4 22 -7 22 -149 l0 -145 -100 0
c-98 0 -101 1 -112 26 -21 45 -54 54 -205 54 -166 1 -194 6 -281 58 -85 51
-173 78 -304 92 -243 27 -455 -33 -604 -172 l-62 -58 -332 0 c-312 0 -332 1
-327 18 120 433 120 432 146 432 36 0 90 35 101 65 5 14 7 38 4 55 -4 16 -4
30 0 30 4 0 246 -36 539 -79z m-3407 32 c-11 -60 -60 -157 -100 -197 -86 -86
-168 -116 -313 -116 l-103 0 0 60 0 60 98 0 c76 0 107 5 142 21 76 34 135 104
154 182 6 26 9 27 67 27 l61 0 -6 -37z m-2199 -70 c-4 -43 -16 -169 -29 -280
l-21 -203 -91 0 c-84 1 -89 2 -71 16 69 53 62 31 80 259 18 232 24 250 86 272
19 7 38 12 43 12 5 1 6 -33 3 -76z m1633 -183 l0 -60 -413 0 c-447 0 -474 -3
-578 -56 -59 -30 -142 -103 -174 -154 -12 -19 -39 -78 -60 -130 -21 -52 -39
-96 -40 -98 -1 -1 -27 7 -58 19 l-56 21 20 52 c78 197 108 245 206 327 61 51
167 106 241 123 44 11 157 15 485 15 l427 1 0 -60z m5627 -40 c37 -22 63 -60
122 -178 l41 -82 -115 0 -115 0 0 140 c0 156 2 160 67 120z m-5619 -82 c10
-10 17 -10 31 -1 16 10 30 -1 112 -83 70 -71 89 -94 73 -94 -11 0 -36 12 -55
26 -53 40 -139 81 -206 98 -86 23 -440 23 -526 0 -70 -18 -161 -62 -204 -98
-30 -26 -34 -26 -192 -26 -89 0 -161 4 -161 9 0 16 106 109 151 132 92 47 101
48 544 48 320 1 424 -2 433 -11z m4510 -18 c112 -14 189 -40 275 -92 l71 -43
177 -5 c98 -3 181 -8 185 -12 4 -5 -79 -8 -185 -8 -193 0 -193 0 -224 26 -43
36 -134 80 -204 98 -73 19 -315 22 -395 5 -70 -15 -149 -51 -209 -94 -27 -19
-51 -35 -54 -35 -34 0 98 91 175 121 115 44 242 57 388 39z m-5924 -252 c-8
-24 -21 -46 -29 -50 -7 -5 -14 -21 -13 -36 0 -15 -12 -56 -27 -92 -15 -36 -33
-79 -40 -97 l-13 -32 -49 19 -48 18 -3 156 -3 156 120 0 120 0 -15 -42z m519
-5 c-76 -100 -113 -224 -113 -386 0 -77 -3 -99 -15 -103 -13 -6 -278 89 -298
106 -11 9 70 211 90 225 9 7 13 17 9 23 -5 9 41 144 60 174 3 4 72 8 155 8
l149 0 -37 -47z m1417 -188 l235 -235 -181 0 -181 0 -6 103 c-7 134 -41 230
-123 345 -15 21 -15 22 2 22 12 0 114 -95 254 -235z m585 8 c94 -126 172 -231
173 -235 2 -5 -92 -8 -210 -8 l-213 0 -235 235 -235 235 276 0 275 0 169 -227z
m1990 207 c-4 -12 -31 -107 -60 -213 -44 -156 -59 -196 -80 -214 l-26 -23
-767 0 c-710 0 -770 1 -802 18 -30 15 -172 191 -341 425 l-20 27 1051 0 1051
0 -6 -20z m667 -32 c-41 -71 -70 -162 -83 -255 -10 -72 -14 -82 -52 -120 l-41
-43 -288 0 -289 0 14 28 c8 15 40 120 72 235 l58 207 319 0 319 0 -29 -52z
m1468 42 c0 -6 -28 -10 -64 -10 -91 0 -96 -7 -96 -137 0 -151 -13 -143 232
-143 l198 0 0 -25 c0 -14 -3 -25 -6 -25 -3 0 -103 -25 -223 -55 -120 -30 -220
-55 -223 -55 -3 0 -8 42 -11 93 -7 115 -37 211 -94 296 -24 35 -43 65 -43 67
0 2 74 4 165 4 103 0 165 -4 165 -10z m-5421 -15 c227 -54 391 -262 391 -495
0 -140 -54 -264 -160 -364 -78 -73 -147 -110 -245 -131 -87 -18 -122 -18 -207
-1 -174 38 -318 163 -379 332 -29 80 -32 235 -5 314 29 87 70 151 138 216 129
123 296 169 467 129z m4706 0 c254 -65 424 -311 385 -557 -28 -182 -124 -315
-284 -393 -275 -135 -602 4 -700 297 -61 182 -16 376 119 514 126 128 313 182
480 139z m880 -135 l0 -65 -120 0 -120 0 -3 68 -3 68 123 -3 123 -3 0 -65z
m555 0 l0 -60 -115 0 -115 0 0 60 0 60 115 0 115 0 0 -60z m-7293 -16 c24 -9
43 -22 43 -28 -1 -6 -29 -81 -64 -166 -68 -169 -63 -164 -135 -132 l-39 17 57
145 c32 80 61 153 64 163 8 21 20 21 74 1z m4648 -469 l0 -30 -1070 0 c-1022
0 -1070 1 -1073 18 -10 49 -56 47 1082 45 l1061 -3 0 -30z"/>
<path d="M3455 2606 c-43 -19 -92 -79 -105 -128 -7 -25 -10 -97 -8 -177 3
-123 5 -140 28 -179 14 -26 42 -54 66 -68 l41 -24 839 0 840 0 23 -31 c34 -45
76 -59 185 -59 104 0 116 7 116 64 0 23 4 26 36 26 45 0 74 15 74 39 0 22 -51
68 -85 77 -15 4 -25 15 -29 35 -5 28 -8 29 -62 29 -51 0 -94 17 -466 180 -225
99 -442 190 -481 202 -69 21 -92 22 -527 25 -364 2 -461 0 -485 -11z m943 -51
c84 -17 145 -40 377 -143 99 -43 244 -107 323 -142 l143 -63 -30 -19 c-18 -12
-36 -37 -47 -64 l-17 -44 -108 0 -107 0 -204 96 c-266 125 -304 134 -558 134
-183 0 -198 -2 -245 -24 -70 -32 -104 -64 -150 -140 l-40 -65 -123 -1 c-146 0
-174 10 -203 73 -15 34 -19 66 -19 162 0 145 10 184 56 224 l35 31 424 0 c333
0 439 -3 493 -15z m45 -315 c42 -10 143 -51 224 -90 l148 -70 -513 0 -512 0
26 43 c40 64 65 88 119 113 47 22 61 24 241 24 157 0 204 -3 267 -20z"/>
<path d="M2175 1407 c-115 -39 -199 -110 -246 -211 -74 -158 -39 -329 93 -451
152 -141 381 -137 532 10 65 63 108 157 114 250 14 223 -149 403 -373 412 -48
2 -96 -2 -120 -10z m192 -255 c63 -45 81 -145 37 -206 -29 -39 -98 -70 -142
-62 -66 10 -120 66 -129 134 -7 52 31 121 79 146 43 22 116 16 155 -12z"/>
<path d="M6870 1402 c-109 -36 -191 -108 -239 -211 -23 -49 -26 -68 -26 -161
0 -94 3 -111 28 -161 61 -125 182 -212 313 -225 202 -21 387 121 424 324 30
167 -58 336 -217 414 -83 41 -196 49 -283 20z m198 -249 c48 -36 64 -67 64
-123 0 -87 -58 -145 -146 -145 -89 1 -146 59 -146 148 0 115 138 187 228 120z"/>
</g>
</svg>
