<svg height="512" viewBox="0 0 64 64" width="512" xmlns="http://www.w3.org/2000/svg"><g id="Twotone"><g id="Stroke_copy_3" data-name="Stroke copy 3"><g><g><path d="m26 18.664h-4v-8a2 2 0 0 1 .891-1.664l9-6 2.218 3.328-8.109 5.406z" fill="#a8dba8"/><path d="m35 61h-22l-4-35h30z" fill="#79bd9a"/><g fill="#cff09e"><path d="m39 24v2h-30v-2a2.006 2.006 0 0 1 2-2 2.006 2.006 0 0 0 2 2z"/><path d="m34 20v2h-20v-2a2.006 2.006 0 0 1 2-2 2.006 2.006 0 0 0 2 2z"/></g></g><g><path d="m44 46a11.042 11.042 0 0 0 4.235-.824l1.765-21.176-3-1.6-2 .6-1.837 22.967c.276.02.554.033.837.033z" fill="#79bd9a"/><path d="m44 46a11.408 11.408 0 0 0 2.5-.279l-1.5-18.721-3-3-3 4 1.453 17.433a11.192 11.192 0 0 0 3.547.567z" fill="#a8dba8"/><g fill="#cff09e"><path d="m35 39c0 .17.017.337.033.505l.713 2.282a8.887 8.887 0 0 0 6.519 4.08l-5.265-14.867-2.963-1.018-1.037 3.018 1.875 6z"/><path d="m53 39h2.857l2.143-10-3-5-4.079 19h.459a5.969 5.969 0 0 0 1.62-4z"/><path d="m27 30 7 19 4-1-7-18z"/><path d="m51.322 43.06 2.678-14.06-5-2-2.336 18.688a9.242 9.242 0 0 0 4.658-2.628z"/><path d="m48.406 45.1.594-10.1-4-1-.666 11.987a10.929 10.929 0 0 0 4.072-.887z"/><path d="m55.55 57-.55 4h-22l-3-22h5a6.112 6.112 0 0 0 2.07 4.46 15.991 15.991 0 0 0 15.81 13.54z"/></g><circle cx="44" cy="54" fill="#79bd9a" r="3"/></g><g><path d="m30 51h-18a4 4 0 0 1 -4-4 4 4 0 0 1 4-4h18a4 4 0 0 1 4 4 4 4 0 0 1 -4 4z" fill="#a8dba8"/><path d="m6 55h30a0 0 0 0 1 0 0v2a4 4 0 0 1 -4 4h-22a4 4 0 0 1 -4-4v-2a0 0 0 0 1 0 0z" fill="#a8dba8"/><path d="m32 55h-22a2 2 0 0 1 -2-2 2 2 0 0 1 2-2h22a2 2 0 0 1 2 2 2 2 0 0 1 -2 2z" fill="#79bd9a"/><path d="m24 56-4-5h8z" fill="#cff09e"/><path d="m7 43a3.234 3.234 0 0 0 1.789 2.894l.764.382a3.232 3.232 0 0 0 2.894 0l1.609-.8a2.112 2.112 0 0 1 1.888 0l2.112 1.056a2.112 2.112 0 0 0 1.888 0l2.112-1.056a2.112 2.112 0 0 1 1.888 0l2.112 1.056a2.112 2.112 0 0 0 1.888 0l2.112-1.056a2.112 2.112 0 0 1 1.888 0 2.112 2.112 0 0 0 3.056-1.892v-.584z" fill="#79bd9a"/><path d="m26 33h-10a10 10 0 0 0 -10 10h30a10 10 0 0 0 -10-10z" fill="#a8dba8"/></g></g></g><g id="Stroke_Close_copy" data-name="Stroke Close copy"><g fill="#3b8686"><path d="m44 50a4 4 0 1 0 4 4 4 4 0 0 0 -4-4zm0 6a2 2 0 1 1 2-2 2 2 0 0 1 -2 2z"/><path d="m58.753 38.342a1 1 0 0 0 -.753-.342h-.906l1.883-8.791a.993.993 0 0 0 -.12-.724l-3-5a1 1 0 0 0 -1.835.3l-.822 3.815-2.421-.968.221-2.549a1 1 0 0 0 -.525-.965l-3-1.6a1 1 0 0 0 -.758-.076l-2 .6a1 1 0 0 0 -.71.878l-.124 1.546-1.172-1.173a1 1 0 0 0 -1.511.107l-1.2 1.6v-1a3 3 0 0 0 -3-3h-2v-1a3 3 0 0 0 -3-3h-5v-4.73l7.664-5.11a1 1 0 0 0 .277-1.387l-2.218-3.328a1 1 0 0 0 -1.387-.277l-9 6a2.993 2.993 0 0 0 -1.336 2.496v6.336h-5a3 3 0 0 0 -3 3v1h-2a3 3 0 0 0 -3 3v2c0 .02.97 8.548.97 8.548a10.984 10.984 0 0 0 -3.97 8.452 1 1 0 0 0 1 1h.126a4.188 4.188 0 0 0 1.021 1.888 4.816 4.816 0 0 0 -.147 1.112 4.976 4.976 0 0 0 1.41 3.466 2.939 2.939 0 0 0 -1.226 3.534h-1.184a1 1 0 0 0 -1 1v2a5.006 5.006 0 0 0 5 5h22a5 5 0 0 0 1-.1v.1h22a1 1 0 0 0 .991-.865l3-22a1 1 0 0 0 -.238-.793zm-3.307-11.655 1.493 2.489-1.89 8.824h-1.749l1.678-8.813a.98.98 0 0 0 0-.354zm-5.052 15.9a7.075 7.075 0 0 1 -.883.747l.489-8.275a1 1 0 0 0 -.756-1.029l-.112-.03.7-5.592 3.031 1.213zm-4.462-7.327 2.021.5-.508 8.638a9.894 9.894 0 0 1 -2.05.5zm.961-11.788 2.056 1.1-.122 1.461a.97.97 0 0 0 -.335.105 1 1 0 0 0 -.484.737l-.83 6.638-.667-.167-.511-6.426a1 1 0 0 0 -.26-.584l.2-2.575zm-4.785 2.047 1.924 1.924.457 5.711a.875.875 0 0 0 -.083.037 1 1 0 0 0 -.4.749l-.613 11.023a10.147 10.147 0 0 1 -2-.318l-1.365-16.345zm-15.227 28.481 1.6-2h3.519a1 1 0 0 1 0 2zm-14.881-4a3 3 0 0 1 -2.987-2.876l.092.047a4.257 4.257 0 0 0 3.789 0l1.609-.8a1.108 1.108 0 0 1 .994 0l2.111 1.055a3.126 3.126 0 0 0 2.784 0l2.108-1.059a1.108 1.108 0 0 1 .994 0l2.111 1.055a3.126 3.126 0 0 0 2.784 0l2.111-1.055a1.108 1.108 0 0 1 .994 0 3.109 3.109 0 0 0 1.472.323 2.689 2.689 0 0 1 .034.31 3 3 0 0 1 -3 3zm13.919 2-1.919 2.4-1.919-2.4zm3.037-19.585-.521-1.415h1.881l.9 2.32a10.926 10.926 0 0 0 -2.26-.905zm7.968 9.335a10.921 10.921 0 0 0 -1.531-4.45l-1.34-4.289.605-1.763 1.561.537 2.738 7.732.359 4.306a6.965 6.965 0 0 1 -2.392-2.073zm-13.924-31.086a1 1 0 0 1 .445-.832l8.168-5.445 1.11 1.664-7.278 4.849a1 1 0 0 0 -.445.832v5.268h-2zm-8 9.336a1 1 0 0 1 1-1h16a1 1 0 0 1 1 1v1h-18zm-5 4a1 1 0 0 1 1-1h26a1 1 0 0 1 1 1v1h-28zm.12 3h28.38l-.3.4a1 1 0 0 0 -.2.683l.3 3.605-.362-1.022a1 1 0 0 0 -.617-.612l-2.963-1.018a1 1 0 0 0 -1.27.621l-.541 1.573-.619-1.592a1 1 0 0 0 -.928-.638h-4a1 1 0 0 0 -.939 1.346l.623 1.689c-.228-.015-.453-.035-.684-.035h-10a10.931 10.931 0 0 0 -5.161 1.292zm5.88 7h10a9.012 9.012 0 0 1 8.944 8h-27.888a9.012 9.012 0 0 1 8.944-8zm17.912 10a1.091 1.091 0 0 1 -.439.529 1.064 1.064 0 0 1 -.114.053.157.157 0 0 0 -.023 0c-.013.005-.02.016-.033.021a1.077 1.077 0 0 1 -.911-.029 3.126 3.126 0 0 0 -2.784 0l-2.108 1.059a1.108 1.108 0 0 1 -.994 0l-2.111-1.055a3.126 3.126 0 0 0 -2.784 0l-2.111 1.055a1.108 1.108 0 0 1 -.994 0l-2.111-1.055a3.126 3.126 0 0 0 -2.784 0l-1.608.8a2.247 2.247 0 0 1 -2 0l-.767-.378a2.214 2.214 0 0 1 -.982-1zm-24.912 9a1 1 0 0 1 1-1h9.519l1.6 2h-11.119a1 1 0 0 1 -1-1zm1 7a3 3 0 0 1 -3-3v-1h15.719l.5.624a1 1 0 0 0 1.562 0l.5-.624h9.719v1a3 3 0 0 1 -3 3zm44.127 0h-18.153a4.948 4.948 0 0 0 1.026-3v-2a1 1 0 0 0 -1-1h-1.184a2.939 2.939 0 0 0 -1.226-3.534 4.976 4.976 0 0 0 1.41-3.466 4.857 4.857 0 0 0 -.125-1.053 3.048 3.048 0 0 0 1.072-1.947h.053a.953.953 0 0 0 .184-.037 11 11 0 0 0 7.816 3.037c5.091 0 9.305-3.059 9.922-7h2.932z"/><circle cx="23" cy="38" r="1"/><circle cx="19" cy="37" r="1"/><circle cx="16" cy="39" r="1"/><circle cx="31" cy="39" r="1"/><circle cx="12" cy="38" r="1"/><circle cx="27" cy="37" r="1"/></g></g></g></svg>